<svg width="45" height="45" viewBox="0 0 45 45" fill="none" xmlns="http://www.w3.org/2000/svg">
<g filter="url(#filter0_b_7_146)">
<path d="M33.2071 12.527C33.1983 12.51 33.1838 12.4967 33.1662 12.4895C31.1238 11.5524 28.9686 10.8842 26.7544 10.5016C26.7343 10.4979 26.7135 10.5006 26.695 10.5093C26.6765 10.5181 26.6612 10.5325 26.6514 10.5504C26.3579 11.083 26.0915 11.6302 25.8532 12.1897C23.4664 11.8274 21.0385 11.8274 18.6517 12.1897C18.4118 11.6288 18.1412 11.0815 17.8409 10.5504C17.8306 10.5329 17.8153 10.5188 17.7969 10.5101C17.7785 10.5014 17.758 10.4985 17.7379 10.5016C15.5234 10.8834 13.368 11.5517 11.326 12.4895C11.3085 12.4969 11.2938 12.5096 11.2838 12.5257C7.20007 18.6242 6.08138 24.5728 6.63017 30.4476C6.63172 30.462 6.63614 30.476 6.64318 30.4886C6.65022 30.5013 6.65973 30.5124 6.67115 30.5213C9.04906 32.2819 11.7088 33.6259 14.5368 34.4957C14.5567 34.5017 14.578 34.5014 14.5977 34.4949C14.6175 34.4885 14.6348 34.4761 14.6473 34.4595C15.2547 33.633 15.7929 32.7579 16.2565 31.8429C16.2628 31.8304 16.2665 31.8166 16.2671 31.8026C16.2678 31.7885 16.2655 31.7745 16.2603 31.7614C16.2551 31.7483 16.2473 31.7364 16.2372 31.7266C16.2271 31.7167 16.2151 31.7091 16.2019 31.7043C15.3532 31.3796 14.5315 30.9881 13.7446 30.5336C13.7303 30.5252 13.7183 30.5134 13.7097 30.4993C13.701 30.4851 13.696 30.4691 13.695 30.4525C13.694 30.436 13.6971 30.4194 13.7041 30.4044C13.711 30.3893 13.7215 30.3762 13.7347 30.3661C13.9003 30.2425 14.063 30.115 14.2227 29.9838C14.2367 29.9723 14.2537 29.9649 14.2717 29.9624C14.2896 29.96 14.3079 29.9627 14.3245 29.9701C19.4796 32.3228 25.0608 32.3228 30.1549 29.9701C30.1715 29.9622 30.19 29.9592 30.2083 29.9614C30.2265 29.9636 30.2437 29.9709 30.258 29.9826C30.4179 30.1144 30.581 30.2423 30.7472 30.3661C30.7605 30.3761 30.7711 30.3891 30.7781 30.4041C30.7852 30.4191 30.7884 30.4356 30.7875 30.4522C30.7867 30.4687 30.7818 30.4848 30.7732 30.499C30.7647 30.5132 30.7527 30.5251 30.7385 30.5336C29.9534 30.9919 29.131 31.3832 28.2801 31.7031C28.2669 31.7081 28.2549 31.7159 28.2449 31.7259C28.2349 31.7358 28.2271 31.7478 28.222 31.761C28.217 31.7742 28.2148 31.7884 28.2155 31.8025C28.2163 31.8166 28.2201 31.8304 28.2265 31.8429C28.6978 32.7528 29.2352 33.6268 29.8344 34.458C29.8466 34.4751 29.8638 34.4879 29.8836 34.4946C29.9035 34.5014 29.9249 34.5017 29.945 34.4955C32.7781 33.6287 35.4424 32.2846 37.8233 30.5213C37.8349 30.5128 37.8446 30.502 37.8516 30.4895C37.8587 30.477 37.863 30.4632 37.8643 30.4489C38.5213 23.6569 36.7644 17.7571 33.2071 12.527ZM17.0263 26.8704C15.4743 26.8704 14.1954 25.4461 14.1954 23.6969C14.1954 21.9477 15.4494 20.5233 17.0263 20.5233C18.6155 20.5233 19.882 21.9601 19.8572 23.6968C19.8572 25.4461 18.6031 26.8704 17.0263 26.8704ZM27.4931 26.8704C25.9411 26.8704 24.6623 25.4461 24.6623 23.6969C24.6623 21.9477 25.9163 20.5233 27.4931 20.5233C29.0825 20.5233 30.3489 21.9601 30.3241 23.6968C30.3241 25.4461 29.0825 26.8704 27.4931 26.8704Z" fill="white" fill-opacity="0.96"/>
</g>
<defs>
<filter id="filter0_b_7_146" x="-32.5" y="-32.5" width="110" height="110" filterUnits="userSpaceOnUse" color-interpolation-filters="sRGB">
<feFlood flood-opacity="0" result="BackgroundImageFix"/>
<feGaussianBlur in="BackgroundImageFix" stdDeviation="16.5"/>
<feComposite in2="SourceAlpha" operator="in" result="effect1_backgroundBlur_7_146"/>
<feBlend mode="normal" in="SourceGraphic" in2="effect1_backgroundBlur_7_146" result="shape"/>
</filter>
</defs>
</svg>
