<svg width="44" height="44" viewBox="0 0 44 44" fill="none" xmlns="http://www.w3.org/2000/svg">
<rect width="44" height="44" fill="#BCE90C"/>
<path d="M33.9636 12.7902C33.9423 12.4508 33.731 12.1578 33.427 12.0466C33.1231 11.9353 32.7857 12.0274 32.5706 12.2803C32.0177 12.9304 31.3188 13.3709 30.6095 13.5718C29.623 12.5976 28.2975 12 26.8409 12C23.7148 12 21.1827 14.6843 21.1827 17.9926V18.7369C16.3967 18.3457 13.8374 14.5004 13.1468 12.5495C13.0352 12.2341 12.7574 12.0188 12.4395 12.0012C12.1216 11.9836 11.824 12.167 11.6818 12.4682C10.0071 16.0165 9.74903 19.4579 10.9662 22.3884C12.0325 24.9555 14.1769 27.0004 17.2161 28.3552C15.8348 29.3906 13.51 30.6154 10.8001 30.6154C10.4476 30.6154 10.1367 30.8593 10.0345 31.216C9.93222 31.5728 10.0627 31.9583 10.3558 32.1652C12.9544 34.0004 15.6778 34.0002 18.2109 34L18.2884 34C26.0654 34 32.3678 27.3218 32.3678 19.0865V18.2771C32.9493 17.652 33.402 17.0121 33.6795 16.1849C33.9891 15.2618 34.0515 14.1915 33.9636 12.7902Z" fill="#1C1C1C"/>
</svg>
